<svg id="svg" fill="#f6e8d1" stroke="#f6e8d1" width="15" height="30" version="1.1" viewBox="144 144 512 512" xmlns="http://www.w3.org/2000/svg" transform="rotate(90)" stroke-width="0">
    <g id="IconSvg_bgCarrier" stroke-width="0"></g>
    <g id="IconSvg_tracerCarrier" stroke-linecap="round" stroke-linejoin="round" stroke="#CCCCCC" stroke-width="0">
      <path xmlns="http://www.w3.org/2000/svg" d="m598.7 557.79h-39.5-94.816-114.77-99.25c-16.02 0-32.344-0.90625-48.367 0h-0.70703c4.332 7.5586 8.6641 15.113 13.098 22.773 6.5508-11.488 13.199-22.973 19.75-34.461 15.82-27.508 31.641-55.117 47.457-82.625 19.145-33.352 38.289-66.703 57.434-99.957 16.523-28.719 32.949-57.434 49.473-86.051 8.0625-14.008 17.027-27.711 24.184-42.117 0.10156-0.20312 0.20312-0.40234 0.30078-0.60547h-26.098c6.5508 11.488 13.199 22.973 19.75 34.461 15.82 27.508 31.641 55.117 47.457 82.625 19.145 33.352 38.289 66.703 57.434 99.957 16.523 28.719 32.949 57.434 49.473 86.051 8.0625 14.008 15.719 28.414 24.184 42.117 0.10156 0.20312 0.20312 0.40234 0.30078 0.60547 4.0312 7.0547 13.703 9.4727 20.656 5.4414 7.1523-4.1328 9.4727-13.602 5.4414-20.656-6.5508-11.488-13.199-22.973-19.75-34.461-15.82-27.508-31.641-55.117-47.457-82.625-19.145-33.352-38.289-66.703-57.434-99.957-16.523-28.719-32.949-57.434-49.473-86.051-8.0625-14.008-15.719-28.414-24.184-42.117-0.10156-0.20312-0.20312-0.40234-0.30078-0.60547-5.6445-9.7734-20.453-9.7734-26.098 0-6.5508 11.488-13.199 22.973-19.75 34.461-15.82 27.508-31.641 55.117-47.457 82.625-19.145 33.352-38.289 66.703-57.434 99.957-16.523 28.719-32.949 57.434-49.473 86.051-8.0625 14.008-16.523 27.91-24.184 42.117-0.10156 0.20312-0.20312 0.40234-0.30078 0.60547-5.7422 9.875 1.5117 22.773 13.098 22.773h39.5 94.816 114.77 99.25c16.121 0 32.242 0.50391 48.367 0h0.70703c7.8594 0 15.516-6.9531 15.113-15.113-0.49609-8.2656-6.7461-15.219-15.211-15.219z"></path>

      </g>
     <g id="IconSvg_iconCarrier">
      <path xmlns="http://www.w3.org/2000/svg" d="m598.7 557.79h-39.5-94.816-114.77-99.25c-16.02 0-32.344-0.90625-48.367 0h-0.70703c4.332 7.5586 8.6641 15.113 13.098 22.773 6.5508-11.488 13.199-22.973 19.75-34.461 15.82-27.508 31.641-55.117 47.457-82.625 19.145-33.352 38.289-66.703 57.434-99.957 16.523-28.719 32.949-57.434 49.473-86.051 8.0625-14.008 17.027-27.711 24.184-42.117 0.10156-0.20312 0.20312-0.40234 0.30078-0.60547h-26.098c6.5508 11.488 13.199 22.973 19.75 34.461 15.82 27.508 31.641 55.117 47.457 82.625 19.145 33.352 38.289 66.703 57.434 99.957 16.523 28.719 32.949 57.434 49.473 86.051 8.0625 14.008 15.719 28.414 24.184 42.117 0.10156 0.20312 0.20312 0.40234 0.30078 0.60547 4.0312 7.0547 13.703 9.4727 20.656 5.4414 7.1523-4.1328 9.4727-13.602 5.4414-20.656-6.5508-11.488-13.199-22.973-19.75-34.461-15.82-27.508-31.641-55.117-47.457-82.625-19.145-33.352-38.289-66.703-57.434-99.957-16.523-28.719-32.949-57.434-49.473-86.051-8.0625-14.008-15.719-28.414-24.184-42.117-0.10156-0.20312-0.20312-0.40234-0.30078-0.60547-5.6445-9.7734-20.453-9.7734-26.098 0-6.5508 11.488-13.199 22.973-19.75 34.461-15.82 27.508-31.641 55.117-47.457 82.625-19.145 33.352-38.289 66.703-57.434 99.957-16.523 28.719-32.949 57.434-49.473 86.051-8.0625 14.008-16.523 27.91-24.184 42.117-0.10156 0.20312-0.20312 0.40234-0.30078 0.60547-5.7422 9.875 1.5117 22.773 13.098 22.773h39.5 94.816 114.77 99.25c16.121 0 32.242 0.50391 48.367 0h0.70703c7.8594 0 15.516-6.9531 15.113-15.113-0.49609-8.2656-6.7461-15.219-15.211-15.219z"></path>

      </g>
      </svg>