<?xml version="1.0" standalone="no"?>
<!DOCTYPE svg PUBLIC "-//W3C//DTD SVG 20010904//EN"
 "http://www.w3.org/TR/2001/REC-SVG-20010904/DTD/svg10.dtd">
<svg version="1.0" xmlns="http://www.w3.org/2000/svg"
 width="583.000000pt" height="451.000000pt" viewBox="0 0 583.000000 451.000000"
 preserveAspectRatio="xMidYMid meet">

<g transform="translate(0.000000,451.000000) scale(0.100000,-0.100000)"
fill="#244056" stroke="none">
<path d="M238 4393 c-68 -53 -140 -110 -160 -127 l-38 -31 0 -377 0 -378 184
0 c102 0 187 -4 190 -9 7 -10 17 -51 121 -456 37 -143 82 -321 101 -395 20
-74 76 -295 126 -490 197 -770 315 -1231 383 -1495 78 -299 133 -516 150 -593
l5 -22 473 0 472 0 150 121 c83 67 153 126 156 133 4 6 32 112 64 236 31 124
68 268 81 320 14 52 59 228 100 390 72 285 90 347 99 339 6 -7 57 -203 265
-1024 45 -176 92 -362 106 -412 13 -51 24 -95 24 -98 0 -3 210 -5 468 -5 l467
0 140 114 c77 62 147 122 157 132 9 11 33 84 53 164 20 80 56 222 80 315 24
94 64 251 90 350 25 99 66 257 90 350 24 94 76 296 116 450 124 482 233 908
319 1245 46 179 88 328 94 332 6 4 35 8 65 8 58 0 60 2 256 165 33 28 71 58
84 67 l24 17 -1 373 c-1 205 -2 376 -2 381 0 4 -380 7 -844 7 l-843 0 -36 -27
c-20 -16 -93 -72 -162 -126 l-125 -99 0 -379 0 -379 169 0 c94 0 172 -4 175
-9 7 -11 -161 -682 -174 -695 -11 -11 -14 -5 -39 94 -45 174 -124 483 -152
590 -17 63 -39 149 -50 190 -11 41 -24 85 -29 98 l-10 22 -595 0 -595 0 -87
-67 c-49 -38 -95 -73 -103 -80 -104 -83 -127 -106 -137 -135 -6 -18 -49 -183
-94 -366 -45 -183 -87 -339 -94 -348 -9 -13 -19 16 -54 152 -41 160 -79 306
-101 384 -26 96 -40 165 -35 179 4 9 68 66 143 126 l137 111 3 382 2 382 -849
0 -849 0 -124 -97z m1726 2 c3 -8 4 -142 3 -297 l-2 -283 -191 -3 -192 -2 8
-33 c10 -41 292 -1139 455 -1772 20 -76 37 -141 40 -143 5 -5 5 -5 100 373 48
187 113 446 146 575 33 129 96 377 141 550 44 173 82 318 85 323 2 4 237 7
522 7 l519 0 16 -62 c9 -35 47 -184 85 -333 98 -381 207 -802 307 -1180 20
-77 42 -162 48 -188 6 -27 15 -48 21 -48 5 0 37 112 71 248 34 136 112 446
174 688 61 242 140 557 176 700 36 143 68 268 70 277 5 16 -10 18 -183 20
l-188 3 0 295 0 295 750 0 750 0 0 -295 0 -295 -177 -3 -177 -2 -14 -53 c-9
-28 -54 -205 -101 -392 -48 -187 -100 -389 -116 -450 -16 -60 -61 -236 -100
-390 -73 -288 -139 -543 -215 -840 -24 -93 -87 -341 -141 -550 -53 -209 -120
-470 -148 -580 l-51 -200 -385 -3 -385 -2 -53 207 c-29 115 -84 330 -122 479
-152 597 -233 917 -271 1069 -22 88 -46 183 -54 210 -8 28 -33 127 -56 220
-44 177 -46 182 -54 173 -5 -5 -71 -255 -100 -378 -7 -30 -45 -181 -84 -335
-40 -154 -115 -449 -167 -655 -53 -206 -130 -512 -173 -680 l-77 -305 -387 -3
-386 -2 -10 37 c-21 81 -93 359 -151 588 -34 132 -81 317 -105 410 -137 534
-340 1327 -515 2010 -56 220 -105 403 -109 407 -3 4 -83 9 -176 10 l-170 3 -3
298 -2 297 749 0 c653 0 750 -2 755 -15z"/>
<path fill="#a13531" d="M687 4233 c-4 -3 -7 -59 -7 -124 0 -104 2 -118 18 -123 9 -2 76 -3
149 -1 91 2 135 -1 141 -9 5 -6 32 -101 60 -211 71 -281 256 -1008 368 -1445
25 -96 87 -341 139 -545 52 -203 115 -449 139 -545 25 -96 76 -295 113 -443
l68 -267 210 2 210 3 57 225 c32 124 96 378 143 565 48 187 99 390 115 450 16
61 65 252 109 425 44 173 112 441 151 595 40 154 82 321 94 370 l22 90 91 3
91 3 20 -78 c12 -43 53 -204 92 -358 39 -154 100 -392 135 -530 35 -137 98
-383 139 -545 220 -869 298 -1174 306 -1196 l10 -24 205 0 c113 0 205 2 205 5
0 3 22 92 49 198 28 106 80 309 116 452 155 608 209 820 251 985 55 214 205
802 389 1525 36 143 70 270 75 283 10 23 13 23 148 22 75 -1 145 -1 155 -1 16
1 17 12 15 124 l-3 122 -530 0 -530 0 -3 -122 c-2 -94 0 -123 10 -124 7 -1
100 -1 206 -1 160 1 194 -2 199 -14 3 -8 -40 -196 -97 -417 -166 -657 -258
-1018 -322 -1267 -33 -129 -66 -260 -73 -290 -7 -30 -52 -206 -99 -390 -47
-184 -100 -393 -118 -465 -19 -71 -38 -129 -43 -128 -6 1 -20 39 -31 85 -12
46 -42 162 -67 258 -93 359 -150 579 -188 725 -21 83 -62 245 -92 360 -76 294
-204 789 -238 920 -16 61 -33 120 -38 133 l-11 22 -334 0 c-186 0 -337 -4
-340 -9 -3 -5 -35 -125 -72 -267 -36 -143 -96 -380 -134 -529 -93 -367 -184
-722 -227 -885 -19 -74 -41 -160 -48 -190 -47 -199 -158 -617 -165 -624 -12
-12 -10 -17 -70 219 -68 267 -181 708 -224 875 -19 74 -59 232 -90 350 -30
118 -70 276 -90 350 -19 74 -60 234 -91 355 -52 204 -103 403 -176 685 -16 63
-28 119 -25 125 3 8 62 11 203 9 109 -1 205 1 211 5 9 5 12 40 10 127 l-3 119
-526 3 c-289 1 -529 -1 -532 -5z"/>
</g>
</svg>
