<?xml version="1.0" standalone="no"?>
<!DOCTYPE svg PUBLIC "-//W3C//DTD SVG 20010904//EN"
 "http://www.w3.org/TR/2001/REC-SVG-20010904/DTD/svg10.dtd">
<svg version="1.0" xmlns="http://www.w3.org/2000/svg"
 width="500.000000pt" height="500.000000pt" viewBox="0 0 700.000000 700.000000"
 preserveAspectRatio="xMidYMid meet">

<g transform="translate(0.000000,500.000000) scale(0.100000,-0.100000)"
fill="#244056" stroke="none">
<path d="M990 5629 c-245 -29 -459 -129 -631 -296 -153 -148 -252 -312 -316
-518 l-28 -90 0 -1465 0 -1465 28 -90 c61 -198 174 -385 311 -513 150 -140
315 -223 546 -274 92 -21 122 -22 1017 -25 l923 -4 0 -375 c0 -353 1 -377 20
-413 45 -89 149 -123 237 -77 12 6 217 203 456 438 l434 427 949 4 c915 3 952
4 1039 24 393 90 704 362 819 715 59 182 57 132 54 1668 l-3 1405 -28 100
c-76 279 -271 543 -499 678 -121 72 -299 129 -458 147 -107 12 -4763 11 -4870
-1z m5006 -356 c251 -88 410 -248 501 -506 21 -58 27 -100 32 -217 12 -235 13
-2532 1 -2641 -29 -283 -202 -514 -470 -628 -135 -58 -72 -55 -1155 -61 -973
-5 -1001 -6 -1042 -25 -27 -13 -159 -134 -377 -348 l-335 -328 -3 273 c-3 245
-5 277 -22 312 -25 49 -84 92 -147 105 -34 7 -359 11 -988 11 -1031 0 -1023 0
-1182 61 -181 70 -363 251 -430 428 -50 133 -50 117 -47 1597 l3 1379 24 70
c96 287 303 480 576 538 61 14 373 15 2520 14 l2450 -2 91 -32z"/>
</g>
</svg>
